<?xml version="1.0" standalone="no"?>
<!DOCTYPE svg PUBLIC "-//W3C//DTD SVG 20010904//EN"
 "http://www.w3.org/TR/2001/REC-SVG-20010904/DTD/svg10.dtd">
<svg version="1.0" xmlns="http://www.w3.org/2000/svg"
 width="238.000000pt" height="212.000000pt" viewBox="0 0 238.000000 212.000000"
 preserveAspectRatio="xMidYMid meet">

<g transform="translate(0.000000,212.000000) scale(0.100000,-0.100000)"
fill="#000000" stroke="none">
<path d="M1263 2086 c-30 -25 -73 -102 -73 -130 0 -9 -5 -16 -11 -16 -7 0 -9
-10 -7 -25 3 -13 2 -22 -2 -20 -5 3 -10 -17 -12 -44 -3 -54 1 -56 20 -8 7 18
11 23 8 11 -2 -12 0 -39 4 -60 l8 -39 2 45 3 45 8 -45 c4 -25 8 -65 8 -90 l0
-45 -14 30 c-7 17 -14 23 -15 15 -1 -8 -8 1 -15 20 -16 42 -20 26 -4 -18 6
-18 16 -29 22 -25 6 3 7 1 3 -6 -10 -15 33 -83 46 -75 7 4 8 2 4 -4 -4 -6 10
-26 30 -44 69 -61 90 -87 101 -123 8 -26 8 -35 0 -36 -7 -1 2 -5 18 -9 17 -4
38 -11 48 -15 16 -7 17 -4 11 21 -12 46 -10 169 2 185 27 32 56 157 61 259 5
100 4 109 -21 161 -35 71 -89 109 -157 109 -35 0 -55 -6 -76 -24z m62 -16 c3
-5 1 -10 -4 -10 -6 0 -11 5 -11 10 0 6 2 10 4 10 3 0 8 -4 11 -10z m-106 -127
c-1 -37 -1 -37 -8 -8 -7 28 -5 45 5 45 2 0 3 -17 3 -37z m18 -55 c-3 -7 -5 -2
-5 12 0 14 2 19 5 13 2 -7 2 -19 0 -25z m33 -50 c0 -5 -4 -8 -10 -8 -5 0 -10
10 -10 23 0 18 2 19 10 7 5 -8 10 -18 10 -22z"/>
<path d="M1278 1383 c-10 -10 -29 -29 -43 -43 -22 -21 -25 -32 -23 -80 l3 -54
-40 -12 c-22 -7 -62 -13 -88 -13 -69 -1 -87 -14 -87 -59 0 -20 7 -46 15 -56 8
-11 15 -15 15 -10 0 6 -4 14 -9 20 -17 17 0 64 26 70 27 7 101 -18 133 -46 25
-22 25 -21 5 -60 -12 -24 -13 -30 -2 -30 7 0 19 6 26 13 11 10 13 4 8 -33 -7
-67 -39 -141 -116 -275 -169 -293 -152 -252 -156 -373 l-3 -107 -41 -3 c-29
-2 -39 -7 -35 -17 4 -8 -3 -15 -18 -18 -13 -2 7 -5 44 -6 64 -1 66 -2 77 -31
5 -17 21 -34 35 -39 13 -6 27 -15 31 -20 3 -6 14 -11 24 -11 10 0 24 -7 31
-15 7 -8 17 -12 23 -8 6 3 7 1 3 -5 -3 -6 2 -16 13 -21 14 -8 21 -8 24 2 4 9
7 9 18 0 15 -15 33 -17 25 -4 -13 21 6 41 34 36 18 -3 41 2 62 14 28 16 42 18
92 11 32 -5 68 -5 80 0 11 5 15 9 9 9 -17 1 -16 22 2 57 9 17 15 54 14 89 -1
65 -25 284 -28 248 0 -13 -5 -23 -11 -23 -5 0 -10 -17 -11 -37 0 -35 -1 -36
-10 -14 -6 17 -6 34 0 50 6 15 9 35 7 46 -3 11 -5 29 -5 40 -1 14 -4 16 -13 7
-8 -8 -8 -15 1 -26 7 -8 8 -17 3 -20 -6 -3 -12 4 -15 16 -5 18 -8 19 -21 8
-18 -14 -21 -3 -6 20 5 8 10 11 11 5 0 -5 7 4 14 20 8 17 14 24 15 18 0 -7 5
-13 11 -13 6 0 8 9 4 21 -5 15 -4 19 4 15 6 -4 11 -3 11 2 0 5 11 22 25 38 19
21 24 24 19 9 -6 -16 -3 -15 13 5 12 14 23 23 26 20 2 -3 11 -41 20 -85 80
-394 128 -609 138 -615 13 -8 90 -1 101 9 6 5 -6 57 -63 261 -12 41 -32 118
-44 170 -13 52 -38 151 -55 220 -17 69 -34 135 -37 148 -3 12 -12 22 -19 22
-8 0 -14 5 -14 10 0 7 -6 7 -19 0 -35 -18 -33 -11 6 23 67 57 69 59 39 51 -16
-4 -26 -2 -26 5 0 6 -7 8 -15 5 -11 -5 -13 -2 -9 9 3 9 18 20 32 26 27 9 27 9
-7 10 -31 1 -33 2 -19 19 8 9 13 25 11 34 -4 14 -8 15 -28 6 -18 -8 -32 -8
-55 2 -40 17 -49 32 -11 19 21 -7 36 -7 50 1 27 14 27 24 0 17 -13 -3 -19 -1
-16 6 5 16 38 22 47 8 11 -18 97 64 111 107 7 20 12 41 11 46 -2 5 5 18 15 29
10 11 12 17 6 13 -7 -4 -13 -2 -13 3 0 6 -9 10 -21 8 -31 -3 -43 35 -19 61 18
19 18 20 -52 20 -39 1 -88 -5 -109 -12 -27 -10 -41 -10 -49 -2 -7 7 -16 7 -29
-1 -22 -14 -46 -1 -38 20 4 11 1 14 -9 10 -7 -3 -14 -12 -14 -20 0 -11 -5 -9
-17 6 -17 21 -19 21 -35 4z m93 -71 c4 -4 9 -20 13 -37 5 -22 4 -26 -4 -15 -5
8 -10 11 -10 7 0 -5 -7 -2 -15 7 -19 19 -45 10 -45 -14 0 -21 23 -33 38 -18 6
6 12 6 16 -1 4 -6 1 -11 -7 -11 -8 0 -26 -9 -39 -20 l-25 -19 -18 38 c-18 42
-12 70 23 91 17 10 61 5 73 -8z m94 -222 c13 -6 15 -9 5 -9 -8 0 -22 4 -30 9
-18 12 -2 12 25 0z m-57 -215 c-3 -3 -9 2 -12 12 -6 14 -5 15 5 6 7 -7 10 -15
7 -18z m36 -1 c3 -8 2 -12 -4 -9 -6 3 -10 1 -10 -6 0 -7 -2 -10 -5 -7 -5 5 4
38 10 38 2 0 6 -7 9 -16z m26 -62 c0 -15 -2 -15 -10 -2 -13 20 -13 33 0 25 6
-3 10 -14 10 -23z m-77 -297 c-3 -9 -8 -14 -10 -11 -3 3 -2 9 2 15 9 16 15 13
8 -4z m-46 -57 c-3 -7 -5 -2 -5 12 0 14 2 19 5 13 2 -7 2 -19 0 -25z m54 -52
c5 3 9 0 9 -6 0 -15 -23 -7 -26 8 -1 7 0 8 3 2 2 -5 9 -8 14 -4z m19 -56 c-6
-37 -8 -40 -9 -13 -1 29 8 68 14 61 1 -2 -1 -23 -5 -48z m-170 -193 l0 -32
-13 25 c-14 26 -11 54 4 44 5 -3 9 -20 9 -37z"/>
<path d="M1098 1013 c6 -2 18 -2 25 0 6 3 1 5 -13 5 -14 0 -19 -2 -12 -5z"/>
</g>
</svg>
