<?xml version="1.0" standalone="no"?>
<!DOCTYPE svg PUBLIC "-//W3C//DTD SVG 20010904//EN"
 "http://www.w3.org/TR/2001/REC-SVG-20010904/DTD/svg10.dtd">
<svg version="1.0" xmlns="http://www.w3.org/2000/svg"
 width="50.000000pt" height="50.000000pt" viewBox="0 0 50.000000 50.000000"
 preserveAspectRatio="xMidYMid meet">

<g transform="translate(0.000000,50.000000) scale(0.100000,-0.100000)"
fill="#000000" stroke="none">
<path d="M172 476 c-139 -45 -201 -198 -134 -327 83 -158 292 -169 396 -21 25
35 31 55 34 110 4 76 -9 117 -53 170 -55 66 -160 95 -243 68z m55 -27 c-17
-23 -9 -70 17 -98 16 -18 11 -65 -6 -55 -5 3 -4 12 3 20 7 9 8 14 1 14 -6 0
-14 -9 -17 -20 -3 -11 -14 -20 -23 -20 -16 -1 -15 -2 1 -11 23 -13 21 -47 -5
-89 -11 -19 -24 -49 -28 -66 -6 -27 -4 -34 16 -45 17 -8 33 -9 56 -3 34 10 38
24 26 88 -1 10 2 21 9 23 7 3 16 -18 23 -54 7 -32 16 -63 22 -70 20 -25 -100
-35 -157 -13 -80 31 -145 122 -145 205 0 104 97 212 193 214 27 1 27 0 14 -20z
m111 2 c135 -70 164 -252 56 -353 -49 -45 -54 -42 -84 68 -23 87 -25 102 -12
110 20 13 7 58 -14 50 -13 -5 -14 4 -8 54 5 42 3 64 -6 75 -10 13 -9 15 9 15
12 0 38 -9 59 -19z"/>
</g>
</svg>
